<svg width="160" height="40" viewBox="0 0 640 160" fill="none" xmlns="http://www.w3.org/2000/svg">
<g transform="translate(0,0) scale(0.465)">
<path d="M102.408 243.76C152.949 222.157 217.303 223.496 270.393 228.963L176.538 254.555L175.442 254.862L176.099 255.804L204.267 296.078L131.45 284.983L102.408 243.76Z" fill="#1d1d1d"/>
<path d="M219.503 206.18C178.415 206.521 126.168 207.748 88.7956 228.067L81.2766 209.289C114.87 189.557 156.861 182.881 195.034 182.252L219.503 206.18Z" fill="#1d1d1d"/>
<path d="M249.959 182.252C288.136 182.879 330.117 189.558 363.714 209.289L356.197 228.067C318.819 207.75 266.583 206.52 225.489 206.18L249.959 182.252Z" fill="#1d1d1d"/>
<path d="M247.927 156.305L222.5 181.648L197.066 156.305L222.5 140.525L247.927 156.305Z" fill="#1d1d1d"/>
<path d="M375.249 108.879L328.817 172.375C309.209 166.673 290.158 163.115 270.632 161.47L287.49 144.521L295.503 84.4498L222.5 51.2245L149.497 84.4498L157.51 144.521L174.361 161.47C154.835 163.116 135.783 166.673 116.176 172.375L69.7438 108.879L222.5 38.9534L375.249 108.879Z" fill="#1d1d1d"/>
<path d="M209.752 100.651L176.655 103.345L201.872 125.294L195.05 154.304L175.765 135.085L170.59 96.2559L221.17 72.7348L209.752 100.651Z" fill="#1d1d1d"/>
<path d="M274.402 96.2559L269.226 135.085L249.942 154.294L243.128 125.294L268.345 103.345L235.248 100.651L223.82 72.7348L274.402 96.2559Z" fill="#1d1d1d"/>
<path fill-rule="evenodd" clip-rule="evenodd" d="M409.122 85.8255L445 170.328L401.292 231.933H392.527L376.424 272.303H364.96L331.026 319.34L222.5 335L113.974 319.34L80.0397 272.303H68.5761L52.4732 231.933H43.7077L0 170.328L35.8783 85.8255L222.5 0L409.122 85.8255ZM46.1862 96.649L15.8929 167.658L50.0735 215.609H61.4989L77.7618 256.187H86.6944L121.778 304.586L222.5 319.048L323.222 304.586L358.306 256.187H367.238L383.501 215.609H394.927L429.107 167.658L398.814 96.649L222.5 15.9524L46.1862 96.649Z" fill="#1d1d1d"/>
</g>
<g transform="translate(230,8) scale(0.335)">
<path d="M61.778 404L89.6773 404.06L77.8574 461.174L119.554 404.06H152.506L103.078 471.59L124.606 545H95.8283L74.7785 476.687L60.8993 545L33 544.941L61.778 404Z" fill="#1d1d1d"/>
<path d="M403.174 446.992H376.014L379.498 429.928H351.783L346.568 454.969L395.09 486.366L387.173 524.926L367.625 544.941H301.094L309.873 501.949H337.113L333.629 519.013H361.309L365.607 497.961L317.227 466.113L325.965 423.553L345.03 404H412L403.174 446.992Z" fill="#1d1d1d"/>
<path fill-rule="evenodd" clip-rule="evenodd" d="M306.909 472.764L266.579 502.393H249.209L240.437 544.941H213.196L241.974 404H321.026L306.909 472.764ZM252.546 485.092L284.948 461.818L291.472 429.707H263.939L252.546 485.092Z" fill="#1d1d1d"/>
<path fill-rule="evenodd" clip-rule="evenodd" d="M208.602 524.293L191.206 544.929L134.967 544.89L127.473 519.182L145.902 429.283L164.392 404H233.164L208.602 524.293ZM173.274 429.707L154.707 518.956H182.286L200.808 429.707H173.274Z" fill="#1d1d1d"/>
</g>
</svg>
